<svg width="16" height="16" viewBox="0 0 16 16" fill="none" xmlns="http://www.w3.org/2000/svg">
<path d="M5.33333 9.33335C5.14445 9.33335 4.986 9.26935 4.858 9.14135C4.73 9.01335 4.66622 8.85512 4.66667 8.66668C4.66667 8.47779 4.73067 8.31935 4.85867 8.19135C4.98667 8.06335 5.14489 7.99957 5.33333 8.00001C5.52222 8.00001 5.68067 8.06401 5.80867 8.19201C5.93667 8.32001 6.00045 8.47823 6 8.66668C6 8.85557 5.936 9.01401 5.808 9.14201C5.68 9.27001 5.52178 9.33379 5.33333 9.33335ZM8 9.33335C7.81111 9.33335 7.65267 9.26935 7.52467 9.14135C7.39667 9.01335 7.33289 8.85512 7.33333 8.66668C7.33333 8.47779 7.39734 8.31935 7.52533 8.19135C7.65333 8.06335 7.81156 7.99957 8 8.00001C8.18889 8.00001 8.34733 8.06401 8.47534 8.19201C8.60333 8.32001 8.66711 8.47823 8.66667 8.66668C8.66667 8.85557 8.60267 9.01401 8.47467 9.14201C8.34667 9.27001 8.18845 9.33379 8 9.33335ZM10.6667 9.33335C10.4778 9.33335 10.3193 9.26935 10.1913 9.14135C10.0633 9.01335 9.99956 8.85512 10 8.66668C10 8.47779 10.064 8.31935 10.192 8.19135C10.32 8.06335 10.4782 7.99957 10.6667 8.00001C10.8556 8.00001 11.014 8.06401 11.142 8.19201C11.27 8.32001 11.3338 8.47823 11.3333 8.66668C11.3333 8.85557 11.2693 9.01401 11.1413 9.14201C11.0133 9.27001 10.8551 9.33379 10.6667 9.33335ZM3.33333 14.6667C2.96667 14.6667 2.65267 14.536 2.39133 14.2747C2.13 14.0133 1.99956 13.6996 2 13.3333V4.00001C2 3.63335 2.13067 3.31935 2.392 3.05801C2.65333 2.79668 2.96711 2.66623 3.33333 2.66668H4V2.00001C4 1.81112 4.064 1.65268 4.192 1.52468C4.32 1.39668 4.47822 1.3329 4.66667 1.33335C4.85556 1.33335 5.014 1.39735 5.142 1.52535C5.27 1.65335 5.33378 1.81157 5.33333 2.00001V2.66668H10.6667V2.00001C10.6667 1.81112 10.7307 1.65268 10.8587 1.52468C10.9867 1.39668 11.1449 1.3329 11.3333 1.33335C11.5222 1.33335 11.6807 1.39735 11.8087 1.52535C11.9367 1.65335 12.0004 1.81157 12 2.00001V2.66668H12.6667C13.0333 2.66668 13.3473 2.79735 13.6087 3.05868C13.87 3.32001 14.0004 3.63379 14 4.00001V13.3333C14 13.7 13.8693 14.014 13.608 14.2753C13.3467 14.5367 13.0329 14.6671 12.6667 14.6667H3.33333ZM3.33333 13.3333H12.6667V6.66668H3.33333V13.3333Z" fill="#5B5F6E"/>
</svg>
