<svg width="17" height="16" viewBox="0 0 17 16" fill="none" xmlns="http://www.w3.org/2000/svg">
<path d="M15.0369 6.69434H14.4999V6.66668H8.49992V9.33334H12.2676C11.7179 10.8857 10.2409 12 8.49992 12C6.29092 12 4.49992 10.209 4.49992 8.00001C4.49992 5.79101 6.29092 4.00001 8.49992 4.00001C9.51958 4.00001 10.4473 4.38468 11.1536 5.01301L13.0393 3.12734C11.8486 2.01768 10.2559 1.33334 8.49992 1.33334C4.81825 1.33334 1.83325 4.31834 1.83325 8.00001C1.83325 11.6817 4.81825 14.6667 8.49992 14.6667C12.1816 14.6667 15.1666 11.6817 15.1666 8.00001C15.1666 7.55301 15.1206 7.11668 15.0369 6.69434Z" fill="#FFC107"/>
<path d="M2.60205 4.89701L4.79238 6.50334C5.38505 5.03601 6.82038 4.00001 8.50005 4.00001C9.51972 4.00001 10.4474 4.38468 11.1537 5.01301L13.0394 3.12734C11.8487 2.01768 10.2561 1.33334 8.50005 1.33334C5.93938 1.33334 3.71872 2.77901 2.60205 4.89701Z" fill="#FF3D00"/>
<path d="M8.49994 14.6667C10.2219 14.6667 11.7866 14.0077 12.9696 12.936L10.9063 11.19C10.2145 11.7161 9.36909 12.0007 8.49994 12C6.76594 12 5.29361 10.8943 4.73894 9.35132L2.56494 11.0263C3.66827 13.1853 5.90894 14.6667 8.49994 14.6667Z" fill="#4CAF50"/>
<path d="M15.037 6.69432H14.5V6.66666H8.5V9.33332H12.2677C12.0047 10.0721 11.5311 10.7177 10.9053 11.1903L10.9063 11.1897L12.9697 12.9357C12.8237 13.0683 15.1667 11.3333 15.1667 7.99999C15.1667 7.55299 15.1207 7.11666 15.037 6.69432Z" fill="#1976D2"/>
</svg>
